<?xml version="1.0" standalone="no"?>
<!DOCTYPE svg PUBLIC "-//W3C//DTD SVG 20010904//EN"
 "http://www.w3.org/TR/2001/REC-SVG-20010904/DTD/svg10.dtd">
<svg version="1.0" xmlns="http://www.w3.org/2000/svg"
 width="325.000000pt" height="325.000000pt" viewBox="0 0 325.000000 325.000000"
 preserveAspectRatio="xMidYMid meet">
<metadata>
Created by potrace 1.14, written by Peter Selinger 2001-2017
</metadata>
<g transform="translate(0.000000,325.000000) scale(0.100000,-0.100000)"
fill="#000000" stroke="none">
<path d="M1733 2778 c1 -40 -4 -68 -14 -68 -5 0 -7 5 -4 10 3 6 1 10 -4 10 -6
0 -12 -20 -12 -45 -2 -61 -2 -62 -18 -77 -11 -11 -13 -7 -7 27 6 40 -8 115
-22 115 -4 0 -7 -36 -6 -80 1 -95 -15 -112 -46 -49 -12 22 -25 37 -30 34 -5
-3 -2 -18 6 -33 15 -28 19 -62 7 -62 -3 0 -14 6 -22 14 -19 17 -121 48 -121
37 0 -4 23 -18 50 -31 49 -23 67 -50 32 -50 -37 0 -86 46 -124 118 -13 23 -26
42 -30 42 -17 0 27 -93 64 -135 22 -25 39 -47 37 -49 -12 -9 -91 -24 -129 -25
-25 -1 -63 -4 -85 -7 -22 -3 -66 -7 -99 -8 -46 -3 -68 -10 -109 -37 -28 -19
-58 -47 -66 -64 -9 -16 -29 -43 -44 -59 -15 -16 -28 -37 -28 -47 -1 -11 -2
-25 -3 -31 -1 -13 -15 -28 -26 -28 -3 0 -32 25 -65 55 -60 54 -206 140 -219
128 -3 -3 -6 -2 -6 3 0 5 -29 10 -64 12 -55 3 -73 -1 -123 -26 -32 -16 -80
-32 -108 -35 -106 -12 -98 -9 -193 -82 -8 -5 -30 -25 -50 -43 l-36 -32 0 -119
c-1 -66 2 -122 5 -125 22 -22 73 -6 68 20 -4 23 3 43 21 64 11 13 20 20 20 16
0 -4 23 5 51 21 l51 28 29 -35 c19 -23 29 -45 29 -68 0 -18 7 -47 16 -63 14
-27 14 -33 1 -47 -8 -10 -21 -36 -27 -59 -15 -50 1 -128 30 -143 21 -11 79 -6
108 9 15 8 28 9 40 2 17 -9 18 -16 9 -58 -8 -42 -7 -53 13 -85 23 -39 45 -47
81 -28 24 13 89 19 89 9 0 -18 -20 -56 -39 -76 -33 -35 -56 -98 -40 -109 5 -3
9 -2 10 3 2 29 10 46 34 78 34 43 43 40 16 -6 -23 -39 -33 -86 -21 -94 5 -3
11 8 15 25 9 40 15 42 57 22 38 -18 65 -62 108 -177 12 -33 26 -68 31 -77 5
-10 9 -23 9 -29 0 -6 10 -23 22 -38 13 -15 34 -43 48 -62 59 -81 146 -161 205
-189 33 -16 71 -31 85 -34 14 -2 36 -9 50 -14 14 -5 28 -10 33 -11 4 0 9 -1
12 -2 20 -3 73 -1 81 3 5 3 43 6 84 7 l76 2 22 -39 c16 -29 19 -41 10 -50 -7
-7 -16 -12 -21 -12 -5 0 -28 -13 -51 -28 -22 -15 -61 -35 -86 -45 -42 -16 -48
-22 -74 -84 -16 -38 -39 -79 -51 -93 -12 -14 -37 -46 -55 -72 l-32 -47 20 -29
c12 -16 28 -35 37 -42 18 -15 20 -68 4 -124 -23 -84 -54 -76 271 -76 274 0
289 1 295 19 3 10 3 68 0 129 -5 109 -5 109 25 151 35 48 36 58 11 85 -18 21
-58 115 -54 128 5 13 -119 128 -138 128 -7 0 -9 13 -5 38 4 20 7 45 8 55 2 16
8 18 38 12 41 -7 65 -13 65 -15 0 -1 15 -2 33 -3 17 -1 32 0 32 3 0 3 12 7 28
8 37 3 310 141 356 181 14 11 16 11 16 -2 0 -9 5 -19 11 -23 8 -4 9 4 4 27
l-6 34 20 -29 20 -29 -6 41 c-6 41 3 52 24 31 12 -12 83 -20 83 -9 0 4 -12 11
-27 15 -52 13 -52 20 -11 101 37 73 61 107 70 99 2 -2 29 -7 60 -10 57 -6 57
-6 98 37 23 23 50 59 61 80 20 39 39 50 39 23 0 -26 45 -56 85 -56 6 0 32 6
60 13 45 13 51 18 67 59 20 51 15 87 -17 135 -22 32 -22 35 -8 81 9 26 27 77
41 113 13 36 26 78 27 93 2 15 4 29 6 30 2 1 16 13 31 25 l26 24 39 -20 c21
-11 51 -26 66 -33 18 -8 30 -23 34 -41 7 -33 14 -35 38 -8 15 16 17 30 11 82
-4 35 -9 100 -11 145 -8 128 -13 143 -78 201 -49 44 -66 53 -102 52 -3 0 -20
7 -38 17 -17 9 -34 18 -37 18 -3 1 -13 5 -22 9 -9 4 -22 9 -30 10 -7 2 -29 10
-49 19 -69 31 -123 5 -254 -118 -17 -16 -47 -50 -66 -75 -55 -73 -55 -73 -68
-31 -6 21 -11 45 -11 52 -1 8 -9 32 -20 54 -11 22 -19 46 -20 53 -1 40 -154
212 -201 227 -10 4 -26 22 -36 42 -9 21 -35 47 -61 64 -40 25 -42 28 -24 38
11 6 34 12 52 13 17 1 34 6 36 10 7 11 -43 21 -73 14 l-28 -6 25 15 c25 16 24
16 -15 10 -22 -4 -46 -12 -54 -18 -7 -6 -25 -13 -40 -14 -26 -3 -26 -3 9 27
33 28 30 36 -10 30 -8 -1 -24 -10 -36 -21 -33 -31 -37 -22 -11 25 24 42 25 56
5 56 -5 0 -22 -21 -38 -47 -29 -46 -30 -46 -30 -17 0 16 -5 36 -10 44 -10 15
-11 13 -13 -29 -3 -38 -24 -36 -31 3 -4 18 -13 39 -21 46 -8 7 -15 25 -15 41
0 16 -4 29 -9 29 -5 0 -9 -6 -8 -12z m27 -118 c0 -16 -4 -30 -8 -30 -5 0 -7
14 -4 30 2 17 6 30 8 30 2 0 4 -13 4 -30z m-1384 -832 c4 -7 11 -31 14 -54 6
-40 6 -41 -21 -39 -42 4 -51 13 -43 48 10 48 35 70 50 45z m179 -271 c-23 -12
-35 1 -35 36 l1 32 24 -30 c20 -25 22 -31 10 -38z m2285 -188 c0 -12 -30 -32
-53 -34 -12 -2 -26 -4 -32 -5 -38 -9 -49 16 -11 26 13 3 35 17 47 30 22 23 24
24 36 8 7 -10 13 -21 13 -25z m-1502 -1245 c-12 -26 -34 -34 -24 -8 3 9 6 25
6 36 0 17 3 18 14 8 12 -9 13 -17 4 -36z"/>
</g>
</svg>
